<svg width="53" height="51" viewBox="0 0 53 51" fill="none" xmlns="http://www.w3.org/2000/svg">
<path d="M46.3257 7.6298C50.0118 11.7994 44.1237 23.0266 33.1743 32.7064C22.2249 42.3863 10.3604 46.8533 6.67432 42.6837C2.98819 38.5141 8.87626 27.2869 19.8257 17.6071C30.7751 7.9272 42.6396 3.46023 46.3257 7.6298Z" fill="#FFD251"/>
<path d="M45.8687 8.03375C45.1018 7.16619 43.8643 6.69371 42.1639 6.6783C40.4638 6.66295 38.371 7.10821 36.014 7.99562C31.3041 9.76895 25.6633 13.2604 20.2296 18.064C14.796 22.8676 10.6392 28.0378 8.30177 32.4947C7.13207 34.7251 6.43354 36.7475 6.24031 38.4367C6.0471 40.1261 6.36428 41.4122 7.13125 42.2798C7.89824 43.1473 9.13571 43.6198 10.8361 43.6352C12.5362 43.6506 14.629 43.2053 16.986 42.3179C21.6959 40.5446 27.3367 37.0531 32.7704 32.2495L33.1743 32.7064L32.6605 33.1567C21.8563 42.5241 10.3028 46.7881 6.67432 42.6837C2.98823 38.5141 8.8763 27.2869 19.8257 17.6071L20.3399 17.1573C31.1441 7.78995 42.6971 3.52542 46.3257 7.6298L46.4914 7.83072C49.8263 12.1503 43.9525 23.1779 33.1743 32.7064L32.7704 32.2495C38.204 27.4459 42.3608 22.2758 44.6982 17.8188C45.868 15.5884 46.5665 13.566 46.7597 11.8768C46.9529 10.1874 46.6357 8.90133 45.8687 8.03375Z" fill="white"/>
<path d="M48.0446 26.4375H35.1345V24.681H39.9501V24.2712H38.501C36.7299 24.2712 35.6614 23.554 35.6614 22.2366C35.6614 20.9192 36.7299 20.202 38.501 20.202H44.678C46.4491 20.202 47.5177 20.9192 47.5177 22.2366C47.5177 23.554 46.4491 24.2712 44.678 24.2712H43.2289V24.681H48.0446V26.4375ZM47.3713 30.8726H44.4877V29.7602L43.4485 30.8726H35.8078V26.7742H47.3713V30.8726ZM47.6055 19.8946H35.5736V18.2552H39.9062V17.5234H43.2728V18.2552H47.6055V19.8946ZM44.2535 21.9585H38.9255C38.6767 21.9585 38.501 22.0463 38.501 22.2366C38.501 22.4269 38.6767 22.5001 38.9255 22.5001H44.2535C44.5024 22.5001 44.678 22.4269 44.678 22.2366C44.678 22.0463 44.5024 21.9585 44.2535 21.9585ZM44.5024 29.0722V28.5746H38.6767V29.0722H44.5024Z" fill="#0070EC"/>
<path d="M34.0192 25.1202L32.5701 27.1402C30.9307 26.1156 29.3059 25.1056 27.6665 24.0371C26.0272 25.1056 24.417 26.1156 22.7777 27.1402L21.3286 25.1349C22.6459 24.2859 23.9194 23.3784 25.1636 22.4562C25.7344 22.0317 26.0857 21.5487 26.0857 20.8607V20.6997H22.0458V18.2407H33.3166V20.6997H29.262V20.8607C29.262 21.5487 29.6133 22.0317 30.1842 22.4562C31.4283 23.3784 32.7018 24.2713 34.0192 25.1202ZM34.1363 30.4043H21.2261V27.9452H34.1363V30.4043Z" fill="#0070EC"/>
<path d="M8.91322 30.1993L7.27383 28.355C8.86931 27.2719 10.6551 25.8228 11.8261 24.6664H7.66904V22.2366H12.6018V20.6265H7.90324V18.1674H15.4708V23.0417C15.4708 24.0517 15.178 24.9738 14.5193 25.691C13.1141 27.2426 10.6551 28.9259 8.91322 30.1993ZM19.7009 30.8727H16.832V17.9479H19.7009V30.8727Z" fill="#0070EC"/>
<path d="M47.5177 22.2367C47.5177 20.9193 46.449 20.2021 44.6779 20.2021H38.501C36.7299 20.2021 35.6612 20.9193 35.6612 22.2367L35.6648 22.3582C35.729 23.598 36.7852 24.2712 38.501 24.2712H39.9501V24.681H35.1347V26.4374H48.0448V24.681H43.2288V24.2712H44.6779C46.3938 24.2712 47.4505 23.5981 47.5147 22.3582L47.5177 22.2367ZM44.5022 28.5744V29.0723H38.6767V28.5744H44.5022ZM39.906 18.2551H35.5736V19.8948H47.6053V18.2551H43.2729V17.5232H39.906V18.2551ZM43.4486 30.8728L44.4879 29.7603V30.8728H47.3712V26.7739H35.8077V30.8728H43.4486ZM44.6702 22.3028C44.6331 22.4442 44.4709 22.4999 44.2533 22.4999H38.9257C38.6768 22.4999 38.501 22.4269 38.501 22.2367C38.501 22.0464 38.6768 21.9585 38.9257 21.9585H44.2533C44.5021 21.9585 44.6779 22.0464 44.6779 22.2367L44.6702 22.3028ZM49.3474 22.2367C49.3474 22.5961 49.2998 22.9424 49.2098 23.2706C49.6156 23.6062 49.8745 24.1133 49.8745 24.681V26.4374C49.8745 27.0092 49.6117 27.5194 49.2009 27.8549V30.8728C49.2008 31.8833 48.3817 32.7025 47.3712 32.7025H44.4879C44.3071 32.7025 44.1324 32.6751 43.9674 32.6263C43.8005 32.6757 43.6261 32.7025 43.4486 32.7025H35.8077C34.7973 32.7025 33.9781 31.8832 33.978 30.8728V30.4041H34.1365V27.9455H33.978V27.8549C33.5673 27.5194 33.305 27.0092 33.305 26.4374V26.1152L34.0191 25.12C33.7798 24.9657 33.5422 24.8095 33.3056 24.6524C33.3142 24.0964 33.5702 23.6006 33.9691 23.2706C33.8791 22.9424 33.8315 22.5961 33.8315 22.2367C33.8315 21.7722 33.9084 21.3289 34.0579 20.9192C33.8599 20.6269 33.744 20.2745 33.744 19.8948V18.2551C33.7441 17.2447 34.5632 16.4255 35.5736 16.4255H38.445C38.7788 15.9819 39.3081 15.6936 39.906 15.6935H43.2729C43.8708 15.6935 44.4 15.9819 44.7339 16.4255H47.6053C48.6157 16.4255 49.4349 17.2447 49.4349 18.2551V19.8948C49.4349 20.2745 49.3191 20.6269 49.1211 20.9192C49.2705 21.3289 49.3474 21.7722 49.3474 22.2367Z" fill="white"/>
<path d="M22.0459 18.2408V20.6994H26.0858V20.8608C26.0858 21.5487 25.7346 22.032 25.1638 22.4564C23.9197 23.3785 22.6461 24.2859 21.3288 25.1348L22.7779 27.1402C24.4172 26.1156 26.0272 25.1056 27.6665 24.0371C29.3059 25.1057 30.9307 26.1156 32.5701 27.1402L34.0192 25.1199C32.7019 24.271 31.4282 23.3785 30.1841 22.4564C29.6133 22.032 29.2622 21.5487 29.2621 20.8608V20.6994H33.3164V18.2408H22.0459ZM34.1365 30.4041V27.9454H21.2264V30.4041H34.1365ZM35.146 20.6994C35.146 21.6732 34.3855 22.4689 33.4259 22.5255C33.9483 22.885 34.4759 23.2377 35.0102 23.5821C35.4035 23.8355 35.6842 24.2292 35.7958 24.681H35.1347V26.4374H35.3259L35.2717 26.5118C35.5019 26.6945 35.6868 26.9309 35.8077 27.2027V30.8728H35.903C35.6959 31.6559 34.9847 32.2336 34.1365 32.2337H21.2264C20.378 32.2337 19.6664 31.656 19.4592 30.8728H19.701V26.9347C19.8042 26.7793 19.9306 26.6409 20.0751 26.5237L19.8458 26.2063C19.7913 26.1309 19.743 26.0521 19.701 25.9704V24.2992C19.8465 24.0159 20.065 23.7728 20.3377 23.597C20.8755 23.2505 21.4063 22.8912 21.9339 22.5249C20.9756 22.4671 20.2162 21.6723 20.2162 20.6994V18.2408C20.2162 17.2303 21.0354 16.4111 22.0459 16.4111H33.3164C34.3269 16.4111 35.146 17.2303 35.146 18.2408V20.6994Z" fill="white"/>
<path d="M19.701 17.9478H16.8321V30.8728H19.701V17.9478ZM7.90349 20.6268H12.6021V22.2367H7.66883V24.6667H11.8261C10.6551 25.823 8.86936 27.2721 7.27395 28.3552L8.91303 30.1992C10.6549 28.9257 13.1142 27.2427 14.5194 25.6911C15.178 24.9739 15.4705 24.0518 15.4705 23.0419V18.1675H7.90349V20.6268ZM21.5307 25.0026C21.4633 25.0465 21.3964 25.0912 21.3288 25.1348L21.5307 25.4142V27.9454H21.2264V30.4041H21.5307V30.8728C21.5306 31.8832 20.7115 32.7024 19.701 32.7025H16.8321C15.8216 32.7025 15.0025 31.8832 15.0024 30.8728V27.7936C13.4359 29.2464 11.3479 30.6856 9.99284 31.6762C9.23158 32.2327 8.17202 32.1196 7.54554 31.4148L5.90646 29.5708C5.55656 29.1772 5.39291 28.6515 5.45798 28.1289C5.52306 27.6063 5.81029 27.137 6.24595 26.8412C6.47688 26.6844 6.71112 26.5181 6.94756 26.3475C6.29608 26.0675 5.83927 25.4207 5.83916 24.6667V22.2367C5.83916 21.8496 5.96046 21.4912 6.16555 21.1956C6.10691 21.0164 6.07385 20.8255 6.07382 20.6268V18.1675C6.07382 17.157 6.893 16.3379 7.90349 16.3379H15.4705C15.6123 16.3379 15.7502 16.3556 15.8827 16.3861C16.1597 16.2174 16.484 16.1181 16.8321 16.1181H19.701C20.7115 16.1181 21.5307 16.9373 21.5307 17.9478V25.0026Z" fill="white"/>
</svg>
